# xmcd CD database file
#
# Track frame offsets:
#	150
#	20602
#	39408
#	59985
#	82361
#	101962
#	116804
#	135695
#	152359
#	167875
#	187105
#	200680
#	213243
#	227646
#	246092
#
# Disc length: 3510 seconds
#
# Revision: 1
# Processed by: cddbd v1.5.2PL0 Copyright (c) Steve Scherf et al.
# Submitted via: CDex 1.51
#
DISCID=e20db40f
DTITLE=Various Artist - STTW-PPP-3321
DYEAR=1900
DGENRE=Blues
TTITLE0=Oasis - Wonderwall
TTITLE1=Peter Andre Ft Bubber Ranx - Mysterious Girl
TTITLE2=Mavericks The - Dance The Night Away
TTITLE3=Robbie Williams - Strong
TTITLE4=Outkast - Hey Ya
TTITLE5=Gnarls Barkley - Crazy
TTITLE6=Shirley Bassey - Get The Party Started
TTITLE7=Kings Of Leon - Sex On Fire
TTITLE8=Hannah Montana - Pumpin' Up The Party
TTITLE9=Michael Buble - Haven't Met You Yet
TTITLE10=Imelda May - Big Bad Handsome Man
TTITLE11=Dionne Bromfield - Mama Said
TTITLE12=Paolo Nutini - 10/10
TTITLE13=Glee Cast - Don't Stop Believing
TTITLE14=Justin Bieber Ft Ludacris - Baby
EXTD=
EXTT0=
EXTT1=
EXTT2=
EXTT3=
EXTT4=
EXTT5=
EXTT6=
EXTT7=
EXTT8=
EXTT9=
EXTT10=
EXTT11=
EXTT12=
EXTT13=
EXTT14=
PLAYORDER=
